<svg width="12" height="13" viewBox="0 0 12 13" fill="none" xmlns="http://www.w3.org/2000/svg">
<path d="M10.6676 11.1667C10.6676 11.5203 10.5272 11.8594 10.2771 12.1095C10.0271 12.3595 9.68793 12.5 9.33431 12.5H2.66764C2.31402 12.5 1.97488 12.3595 1.72483 12.1095C1.47479 11.8594 1.33431 11.5203 1.33431 11.1667V7.53995C1.33431 6.67576 0.789926 5.91557 0.357914 5.16711C0.123846 4.76159 0.00073648 4.30156 0.000976914 3.83333V3.16667C0.000976914 2.45942 0.281928 1.78115 0.782025 1.28105C1.28212 0.780951 1.9604 0.5 2.66764 0.5H9.33431C10.0416 0.5 10.7198 0.780951 11.2199 1.28105C11.72 1.78115 12.001 2.45942 12.001 3.16667V3.83333C12.001 4.20035 11.9268 4.55012 11.7926 4.86843C11.3767 5.85513 10.6676 6.80272 10.6676 7.87352V11.1667Z" fill="#999EA4"/>
</svg>
