<svg width="9" height="15" viewBox="0 0 9 15" fill="none" xmlns="http://www.w3.org/2000/svg">
<path d="M9.00076 10.4996V12.7498C9.00076 13.9874 7.98817 15 6.75057 15H2.25019C1.01259 15 0 13.9874 0 12.7498V9.74206C0 9.32952 0.337529 8.99199 0.757564 8.99199L2.91775 8.99949C3.43529 8.99949 3.94533 9.112 4.41787 9.33702C4.93542 9.57704 5.48296 9.74956 6.06051 9.74956H8.2507C8.66323 9.74956 9.00076 10.0871 9.00076 10.4996Z" fill="#999EA4"/>
<path d="M8.55822 5.55797L6.96809 3.96783C6.82558 3.82532 6.75057 3.63781 6.75057 3.44279V2.18268C7.18561 2.03267 7.50063 1.61264 7.50063 1.1251C7.50063 0.502542 6.99809 0 6.37554 0H2.62522C2.00267 0 1.50013 0.502542 1.50013 1.1251C1.50013 1.61264 1.81515 2.03267 2.25019 2.18268V3.44279C2.25019 3.63781 2.17518 3.82532 2.03267 3.96783L0.442537 5.55797C0.202517 5.79799 0 6.28553 0 6.62306V7.1106C0 7.52313 0.330028 7.86066 0.742562 7.86066L2.92525 7.87566C3.66031 7.87566 4.40287 8.05568 5.06293 8.40071C5.37795 8.56572 5.73798 8.62573 6.09051 8.62573H8.2507C8.66323 8.62573 9.00076 8.2882 9.00076 7.87566V6.62306C9.00076 6.28553 8.79824 5.79799 8.55822 5.55797Z" fill="#999EA4"/>
</svg>
