<svg width="12" height="13" viewBox="0 0 12 13" fill="none" xmlns="http://www.w3.org/2000/svg">
<path d="M7.03635 1.36652L8.09525 3.49601C8.23794 3.79052 8.62095 4.06992 8.94387 4.13033L10.8589 4.44749C12.083 4.65138 12.3684 5.54244 11.4897 6.4335L9.99526 7.93623C9.74743 8.18543 9.60475 8.67627 9.68736 9.03118L10.1154 10.8888C10.4534 12.3538 9.67234 12.9277 8.38814 12.1575L6.59327 11.0852C6.27034 10.8888 5.72963 10.8888 5.4067 11.0852L3.61183 12.1575C2.32764 12.9201 1.54663 12.3538 1.88457 10.8888L2.31264 9.03118C2.39525 8.68382 2.25256 8.19298 2.00473 7.93623L0.510264 6.4335C-0.368396 5.54999 -0.0830195 4.65893 1.1411 4.44749L3.0561 4.13033C3.37902 4.07747 3.76203 3.79052 3.90472 3.49601L4.96362 1.36652C5.52686 0.211159 6.45809 0.211159 7.03635 1.36652Z" fill="#F3F4F6"/>
</svg>
