<svg width="50" height="50" viewBox="0 0 50 50" fill="none" xmlns="http://www.w3.org/2000/svg">
<path fill-rule="evenodd" clip-rule="evenodd" d="M25 0C11.1929 0 0 11.1929 0 25C0 38.8071 11.1929 50 25 50C38.8071 50 50 38.8071 50 25C50 11.1929 38.8071 0 25 0ZM35.6841 13.8042C35.5434 13.2535 35.3744 12.8188 35.1774 12.5H21.1149C19.9043 12.5 18.9471 12.8623 18.2432 13.5868C17.5394 14.3114 17.1875 15.2968 17.1875 16.5431V35.4542C17.1875 36.2077 17.272 36.8164 17.4409 37.2801C17.6098 37.7438 17.8632 38.1061 18.201 38.3669C18.5389 38.6278 18.9471 38.8017 19.4257 38.8886C19.9324 39.0045 20.5096 39.0625 21.1571 39.0625C21.8046 39.0625 22.4521 39.019 23.0997 38.9321C23.7753 38.8451 24.268 38.7582 24.5777 38.6712V29.4983H31.9679C32.7562 29.4983 33.3756 29.2664 33.826 28.8027C34.3046 28.31 34.5439 27.513 34.5439 26.4116C34.5439 25.832 34.4595 25.2813 34.2905 24.7596C34.1498 24.2379 33.9668 23.8177 33.7416 23.4989H24.4932V18.5863H33.3615C34.1498 18.5863 34.7691 18.3545 35.2196 17.8908C35.6982 17.398 35.9375 16.5865 35.9375 15.4562C35.9375 14.8766 35.853 14.3259 35.6841 13.8042Z" fill="white"/>
</svg>
